<svg xmlns="http://www.w3.org/2000/svg" width="760" height="460" viewBox="0 0 760 460">
<rect width="100%" height="100%" fill="white"/>
<text x="380.0" y="28" text-anchor="middle" font-family="Arial" font-size="18" font-weight="700">Risk and utility tradeoff</text>
<line x1="75" y1="390" x2="730" y2="390" stroke="#222"/>
<line x1="75" y1="55" x2="75" y2="390" stroke="#222"/>
<text x="380.0" y="438" text-anchor="middle" font-family="Arial" font-size="13">Total information loss</text>
<text transform="translate(18 230.0) rotate(-90)" text-anchor="middle" font-family="Arial" font-size="13">Max prosecutor risk</text>
<text x="75.0" y="410" text-anchor="middle" font-family="Arial" font-size="11">0.00</text>
<text x="67" y="394.0" text-anchor="end" font-family="Arial" font-size="11">0.00</text>
<text x="206.0" y="410" text-anchor="middle" font-family="Arial" font-size="11">0.21</text>
<text x="67" y="327.0" text-anchor="end" font-family="Arial" font-size="11">0.11</text>
<text x="337.0" y="410" text-anchor="middle" font-family="Arial" font-size="11">0.42</text>
<text x="67" y="260.0" text-anchor="end" font-family="Arial" font-size="11">0.22</text>
<text x="468.0" y="410" text-anchor="middle" font-family="Arial" font-size="11">0.63</text>
<text x="67" y="193.0" text-anchor="end" font-family="Arial" font-size="11">0.32</text>
<text x="599.0" y="410" text-anchor="middle" font-family="Arial" font-size="11">0.84</text>
<text x="67" y="126.0" text-anchor="end" font-family="Arial" font-size="11">0.43</text>
<text x="730.0" y="410" text-anchor="middle" font-family="Arial" font-size="11">1.05</text>
<text x="67" y="59.0" text-anchor="end" font-family="Arial" font-size="11">0.54</text>
<circle cx="591.4" cy="79.8" r="5" fill="#246BFE" opacity="0.75"/>
<text x="598.4" y="83.8" font-family="Arial" font-size="10">k=2</text>
<circle cx="681.5" cy="389.9" r="5" fill="#D53F8C" opacity="0.75"/>
<text x="688.5" y="393.9" font-family="Arial" font-size="10">k=2</text>
<circle cx="591.5" cy="265.9" r="5" fill="#246BFE" opacity="0.75"/>
<text x="598.5" y="269.9" font-family="Arial" font-size="10">k=5</text>
<circle cx="681.5" cy="389.9" r="5" fill="#D53F8C" opacity="0.75"/>
<text x="688.5" y="393.9" font-family="Arial" font-size="10">k=5</text>
<circle cx="591.9" cy="328.0" r="5" fill="#246BFE" opacity="0.75"/>
<text x="598.9" y="332.0" font-family="Arial" font-size="10">k=10</text>
<circle cx="681.5" cy="389.9" r="5" fill="#D53F8C" opacity="0.75"/>
<text x="688.5" y="393.9" font-family="Arial" font-size="10">k=10</text>
<circle cx="593.0" cy="360.5" r="5" fill="#246BFE" opacity="0.75"/>
<text x="600.0" y="364.5" font-family="Arial" font-size="10">k=20</text>
<circle cx="681.5" cy="389.9" r="5" fill="#D53F8C" opacity="0.75"/>
<text x="688.5" y="393.9" font-family="Arial" font-size="10">k=20</text>
<circle cx="611.2" cy="377.6" r="5" fill="#246BFE" opacity="0.75"/>
<text x="618.2" y="381.6" font-family="Arial" font-size="10">k=50</text>
<circle cx="681.5" cy="389.9" r="5" fill="#D53F8C" opacity="0.75"/>
<text x="688.5" y="393.9" font-family="Arial" font-size="10">k=50</text>
<rect x="85" y="60" width="12" height="12" fill="#246BFE"/><text x="103" y="71" font-family="Arial" font-size="12">k + l-diversity</text>
<rect x="85" y="79" width="12" height="12" fill="#D53F8C"/><text x="103" y="90" font-family="Arial" font-size="12">k + t-closeness</text>
</svg>