<svg xmlns="http://www.w3.org/2000/svg" width="760" height="460" viewBox="0 0 760 460">
<rect width="100%" height="100%" fill="white"/>
<text x="380.0" y="28" text-anchor="middle" font-family="Arial" font-size="18" font-weight="700">t-closeness parameter sweep, k=5</text>
<line x1="70" y1="390" x2="730" y2="390" stroke="#222"/>
<line x1="70" y1="55" x2="70" y2="390" stroke="#222"/>
<line x1="66" y1="390.0" x2="70" y2="390.0" stroke="#222"/>
<text x="62" y="394.0" text-anchor="end" font-family="Arial" font-size="11">0.00</text>
<line x1="66" y1="323.0" x2="70" y2="323.0" stroke="#222"/>
<text x="62" y="327.0" text-anchor="end" font-family="Arial" font-size="11">0.22</text>
<line x1="66" y1="256.0" x2="70" y2="256.0" stroke="#222"/>
<text x="62" y="260.0" text-anchor="end" font-family="Arial" font-size="11">0.43</text>
<line x1="66" y1="189.0" x2="70" y2="189.0" stroke="#222"/>
<text x="62" y="193.0" text-anchor="end" font-family="Arial" font-size="11">0.65</text>
<line x1="66" y1="122.0" x2="70" y2="122.0" stroke="#222"/>
<text x="62" y="126.0" text-anchor="end" font-family="Arial" font-size="11">0.86</text>
<line x1="66" y1="55.0" x2="70" y2="55.0" stroke="#222"/>
<text x="62" y="59.0" text-anchor="end" font-family="Arial" font-size="11">1.08</text>
<line x1="70.0" y1="390" x2="70.0" y2="394" stroke="#222"/>
<text x="70.0" y="410" text-anchor="middle" font-family="Arial" font-size="11">0.05</text>
<line x1="202.0" y1="390" x2="202.0" y2="394" stroke="#222"/>
<text x="202.0" y="410" text-anchor="middle" font-family="Arial" font-size="11">0.14</text>
<line x1="334.0" y1="390" x2="334.0" y2="394" stroke="#222"/>
<text x="334.0" y="410" text-anchor="middle" font-family="Arial" font-size="11">0.23</text>
<line x1="466.0" y1="390" x2="466.0" y2="394" stroke="#222"/>
<text x="466.0" y="410" text-anchor="middle" font-family="Arial" font-size="11">0.32</text>
<line x1="598.0" y1="390" x2="598.0" y2="394" stroke="#222"/>
<text x="598.0" y="410" text-anchor="middle" font-family="Arial" font-size="11">0.41</text>
<line x1="730.0" y1="390" x2="730.0" y2="394" stroke="#222"/>
<text x="730.0" y="410" text-anchor="middle" font-family="Arial" font-size="11">0.5</text>
<text x="380.0" y="438" text-anchor="middle" font-family="Arial" font-size="13">t</text>
<text transform="translate(18 230.0) rotate(-90)" text-anchor="middle" font-family="Arial" font-size="13">Metric value</text>
<polyline points="70.0,390.0 143.3,390.0 290.0,389.9 436.7,387.9 730.0,328.0" fill="none" stroke="#246BFE" stroke-width="2.5"/>
<circle cx="70.0" cy="390.0" r="4" fill="#246BFE"/>
<circle cx="143.3" cy="390.0" r="4" fill="#246BFE"/>
<circle cx="290.0" cy="389.9" r="4" fill="#246BFE"/>
<circle cx="436.7" cy="387.9" r="4" fill="#246BFE"/>
<circle cx="730.0" cy="328.0" r="4" fill="#246BFE"/>
<rect x="78" y="52" width="12" height="12" fill="#246BFE"/>
<text x="96" y="63" font-family="Arial" font-size="12">risk</text>
<polyline points="70.0,79.8 143.3,79.8 290.0,87.6 436.7,95.3 730.0,227.5" fill="none" stroke="#D53F8C" stroke-width="2.5"/>
<circle cx="70.0" cy="79.8" r="4" fill="#D53F8C"/>
<circle cx="143.3" cy="79.8" r="4" fill="#D53F8C"/>
<circle cx="290.0" cy="87.6" r="4" fill="#D53F8C"/>
<circle cx="436.7" cy="95.3" r="4" fill="#D53F8C"/>
<circle cx="730.0" cy="227.5" r="4" fill="#D53F8C"/>
<rect x="78" y="71" width="12" height="12" fill="#D53F8C"/>
<text x="96" y="82" font-family="Arial" font-size="12">utility loss</text>
</svg>