<svg xmlns="http://www.w3.org/2000/svg" width="760" height="460" viewBox="0 0 760 460">
<rect width="100%" height="100%" fill="white"/>
<text x="380.0" y="28" text-anchor="middle" font-family="Arial" font-size="18" font-weight="700">Utility loss vs k, 10% suppression limit</text>
<line x1="70" y1="390" x2="730" y2="390" stroke="#222"/>
<line x1="70" y1="55" x2="70" y2="390" stroke="#222"/>
<line x1="66" y1="390.0" x2="70" y2="390.0" stroke="#222"/>
<text x="62" y="394.0" text-anchor="end" font-family="Arial" font-size="11">0.82</text>
<line x1="66" y1="323.0" x2="70" y2="323.0" stroke="#222"/>
<text x="62" y="327.0" text-anchor="end" font-family="Arial" font-size="11">0.85</text>
<line x1="66" y1="256.0" x2="70" y2="256.0" stroke="#222"/>
<text x="62" y="260.0" text-anchor="end" font-family="Arial" font-size="11">0.89</text>
<line x1="66" y1="189.0" x2="70" y2="189.0" stroke="#222"/>
<text x="62" y="193.0" text-anchor="end" font-family="Arial" font-size="11">0.92</text>
<line x1="66" y1="122.0" x2="70" y2="122.0" stroke="#222"/>
<text x="62" y="126.0" text-anchor="end" font-family="Arial" font-size="11">0.95</text>
<line x1="66" y1="55.0" x2="70" y2="55.0" stroke="#222"/>
<text x="62" y="59.0" text-anchor="end" font-family="Arial" font-size="11">0.99</text>
<line x1="70.0" y1="390" x2="70.0" y2="394" stroke="#222"/>
<text x="70.0" y="410" text-anchor="middle" font-family="Arial" font-size="11">2</text>
<line x1="202.0" y1="390" x2="202.0" y2="394" stroke="#222"/>
<text x="202.0" y="410" text-anchor="middle" font-family="Arial" font-size="11">11.6</text>
<line x1="334.0" y1="390" x2="334.0" y2="394" stroke="#222"/>
<text x="334.0" y="410" text-anchor="middle" font-family="Arial" font-size="11">21.2</text>
<line x1="466.0" y1="390" x2="466.0" y2="394" stroke="#222"/>
<text x="466.0" y="410" text-anchor="middle" font-family="Arial" font-size="11">30.8</text>
<line x1="598.0" y1="390" x2="598.0" y2="394" stroke="#222"/>
<text x="598.0" y="410" text-anchor="middle" font-family="Arial" font-size="11">40.4</text>
<line x1="730.0" y1="390" x2="730.0" y2="394" stroke="#222"/>
<text x="730.0" y="410" text-anchor="middle" font-family="Arial" font-size="11">50</text>
<text x="380.0" y="438" text-anchor="middle" font-family="Arial" font-size="13">k</text>
<text transform="translate(18 230.0) rotate(-90)" text-anchor="middle" font-family="Arial" font-size="13">Total information loss</text>
<polyline points="70.0,366.9 111.2,366.6 180.0,365.3 317.5,361.9 730.0,303.4" fill="none" stroke="#246BFE" stroke-width="2.5"/>
<circle cx="70.0" cy="366.9" r="4" fill="#246BFE"/>
<circle cx="111.2" cy="366.6" r="4" fill="#246BFE"/>
<circle cx="180.0" cy="365.3" r="4" fill="#246BFE"/>
<circle cx="317.5" cy="361.9" r="4" fill="#246BFE"/>
<circle cx="730.0" cy="303.4" r="4" fill="#246BFE"/>
<rect x="78" y="52" width="12" height="12" fill="#246BFE"/>
<text x="96" y="63" font-family="Arial" font-size="12">k + l-diversity</text>
<polyline points="70.0,78.1 111.2,78.1 180.0,78.1 317.5,78.1 730.0,78.1" fill="none" stroke="#D53F8C" stroke-width="2.5"/>
<circle cx="70.0" cy="78.1" r="4" fill="#D53F8C"/>
<circle cx="111.2" cy="78.1" r="4" fill="#D53F8C"/>
<circle cx="180.0" cy="78.1" r="4" fill="#D53F8C"/>
<circle cx="317.5" cy="78.1" r="4" fill="#D53F8C"/>
<circle cx="730.0" cy="78.1" r="4" fill="#D53F8C"/>
<rect x="78" y="71" width="12" height="12" fill="#D53F8C"/>
<text x="96" y="82" font-family="Arial" font-size="12">k + t-closeness</text>
</svg>